<?xml version="1.0" encoding="UTF-8" standalone="no"?>
<!DOCTYPE svg PUBLIC "-//W3C//DTD SVG 1.1//EN" "http://www.w3.org/Graphics/SVG/1.1/DTD/svg11.dtd">
<svg width="100%" height="100%" viewBox="0 0 120 32" version="1.1" xmlns="http://www.w3.org/2000/svg" xmlns:xlink="http://www.w3.org/1999/xlink" xml:space="preserve" xmlns:serif="http://www.serif.com/" style="fill-rule:evenodd;clip-rule:evenodd;stroke-linejoin:round;stroke-miterlimit:2;">
    <g>
        <path id="caption" d="M15.225,30.484L9.495,19.73L9.495,30.484L0,30.484L0,0.508L14.113,0.508C16.551,0.508 18.646,0.932 20.4,1.778C22.153,2.668 23.436,3.811 24.334,5.293C25.19,6.774 25.617,8.468 25.617,10.331C25.617,12.321 25.061,14.099 23.949,15.665C22.795,17.232 21.17,18.333 19.074,19.01L25.66,30.484L15.225,30.484ZM9.495,13.464L13.258,13.464C14.156,13.464 14.84,13.252 15.311,12.829C15.781,12.448 15.995,11.813 15.995,10.924C15.995,10.119 15.738,9.526 15.268,9.061C14.84,8.595 14.156,8.383 13.258,8.383L9.495,8.383L9.495,13.464ZM77.107,0C79.972,0 82.581,0.635 84.933,1.948C87.285,3.26 89.167,5.123 90.536,7.452C91.947,9.78 92.631,12.448 92.631,15.369C92.631,18.29 91.947,20.958 90.536,23.286C89.167,25.615 87.285,27.478 84.89,28.79C82.538,30.103 79.93,30.78 77.107,30.78C74.242,30.78 71.633,30.103 69.238,28.79C66.886,27.478 65.004,25.615 63.593,23.286C62.182,20.958 61.498,18.29 61.498,15.369C61.498,12.448 62.182,9.78 63.593,7.452C65.004,5.123 66.886,3.26 69.238,1.948C71.633,0.635 74.242,0 77.107,0ZM77.107,8.68C75.183,8.68 73.729,9.272 72.702,10.458C71.676,11.686 71.163,13.294 71.163,15.369C71.163,17.401 71.676,19.01 72.702,20.196C73.729,21.423 75.183,22.016 77.107,22.016C78.989,22.016 80.443,21.423 81.469,20.196C82.496,19.01 83.009,17.401 83.009,15.369C83.009,13.294 82.496,11.686 81.469,10.458C80.443,9.272 78.989,8.68 77.107,8.68ZM119.83,0.508L119.83,7.96L111.79,7.96L111.79,30.484L102.296,30.484L102.296,7.96L94.342,7.96L94.342,0.508L119.83,0.508Z" style="fill:white;"/>
        <g id="emblem">
            <path d="M58.585,12.171C56.722,3.797 48.412,-1.489 40.038,0.373C31.664,2.236 26.377,10.547 28.24,18.921C30.103,27.295 38.413,32.581 46.787,30.719C55.161,28.856 60.448,20.545 58.585,12.171Z" style="fill:url(#_Linear1);"/>
            <g>
                <g>
                    <clipPath id="_clip2">
                        <path d="M58.585,12.171C56.722,3.797 48.412,-1.489 40.038,0.373C31.664,2.236 26.377,10.547 28.24,18.921C30.103,27.295 38.413,32.581 46.787,30.719C55.161,28.856 60.448,20.545 58.585,12.171Z"/>
                    </clipPath>
                    <g clip-path="url(#_clip2)">
                        <path d="M53.421,16.259C52.775,16.259 52.25,15.735 52.25,15.088C52.25,13.151 50.674,11.574 48.736,11.574C48.09,11.574 47.565,11.05 47.565,10.403C47.565,9.757 48.09,9.232 48.736,9.232C51.967,9.232 54.592,11.858 54.592,15.088C54.592,15.735 54.068,16.259 53.421,16.259Z" style="fill:url(#_Linear3);fill-rule:nonzero;"/>
                        <g>
                            <g id="right">
                                <path d="M47.564,8.988C47.564,7.052 45.988,5.475 44.05,5.475C43.404,5.475 42.879,4.951 42.879,4.303C42.879,3.657 43.404,3.132 44.05,3.132C47.018,3.132 49.549,5.076 49.855,8.211C49.888,8.263 49.856,19.19 49.856,19.19C49.856,19.835 50.433,20.361 51.077,20.361C51.725,20.361 52.249,20.886 52.249,21.532C52.249,22.18 51.725,22.704 51.077,22.704C49.298,22.704 47.821,21.372 47.594,19.652C47.574,19.611 47.564,19.569 47.564,19.525L47.564,8.988Z" style="fill:url(#_Linear4);fill-rule:nonzero;"/>
                            </g>
                            <g id="left">
                                <path d="M33.064,16.248C32.503,15.925 32.311,15.209 32.635,14.648C32.958,14.089 33.674,13.896 34.235,14.22C34.792,14.542 35.512,14.35 35.835,13.791C36.158,13.231 36.874,13.039 37.434,13.362C37.994,13.686 38.186,14.403 37.863,14.962C36.894,16.64 34.74,17.216 33.064,16.248Z" style="fill:url(#_Linear5);fill-rule:nonzero;"/>
                                <path d="M35.846,12.821C36.186,9.913 38.663,7.65 41.662,7.65C42.308,7.65 42.833,8.175 42.833,8.821C42.833,9.468 42.308,9.992 41.662,9.992C39.724,9.992 38.148,11.569 38.148,13.506L38.148,19.556C37.981,21.193 36.302,22.537 34.635,22.537C33.988,22.537 33.464,22.013 33.464,21.365C33.464,20.719 33.988,20.194 34.635,20.194C35.279,20.194 35.855,19.668 35.855,19.023C35.855,19.023 35.82,12.875 35.846,12.821Z" style="fill:url(#_Linear6);fill-rule:nonzero;"/>
                            </g>
                            <path d="M42.94,27.035C42.293,27.035 41.769,26.668 41.769,26.214L41.769,-14.845C41.769,-15.298 42.293,-15.666 42.94,-15.666C43.586,-15.666 44.111,-15.298 44.111,-14.845L44.111,26.214C44.111,26.668 43.586,27.035 42.94,27.035Z" style="fill:white;fill-rule:nonzero;"/>
                        </g>
                    </g>
                </g>
            </g>
        </g>
    </g>
    <defs>
        <linearGradient id="_Linear1" x1="0" y1="0" x2="1" y2="0" gradientUnits="userSpaceOnUse" gradientTransform="matrix(-16.6518,22.7584,-22.7584,-16.6518,47.6537,6.30617)"><stop offset="0" style="stop-color:rgb(29,161,255);stop-opacity:1"/><stop offset="1" style="stop-color:rgb(2,104,252);stop-opacity:1"/></linearGradient>
        <linearGradient id="_Linear3" x1="0" y1="0" x2="1" y2="0" gradientUnits="userSpaceOnUse" gradientTransform="matrix(-8.67681,-1.31342,1.31342,-8.67681,57.1955,11.5717)"><stop offset="0" style="stop-color:white;stop-opacity:1"/><stop offset="0.58" style="stop-color:rgb(241,241,241);stop-opacity:1"/><stop offset="0.8" style="stop-color:rgb(210,210,210);stop-opacity:1"/><stop offset="1" style="stop-color:rgb(179,179,179);stop-opacity:1"/></linearGradient>
        <linearGradient id="_Linear4" x1="0" y1="0" x2="1" y2="0" gradientUnits="userSpaceOnUse" gradientTransform="matrix(-8.64383,-2.77633,2.77633,-8.64383,51.5231,5.90863)"><stop offset="0" style="stop-color:white;stop-opacity:1"/><stop offset="0.52" style="stop-color:rgb(237,237,237);stop-opacity:1"/><stop offset="1" style="stop-color:rgb(178,178,178);stop-opacity:1"/></linearGradient>
        <linearGradient id="_Linear5" x1="0" y1="0" x2="1" y2="0" gradientUnits="userSpaceOnUse" gradientTransform="matrix(3.8029,-0.930653,0.930653,3.8029,32.8683,16.1073)"><stop offset="0" style="stop-color:white;stop-opacity:1"/><stop offset="0.48" style="stop-color:rgb(235,235,235);stop-opacity:1"/><stop offset="1" style="stop-color:rgb(178,178,178);stop-opacity:1"/></linearGradient>
        <linearGradient id="_Linear6" x1="0" y1="0" x2="1" y2="0" gradientUnits="userSpaceOnUse" gradientTransform="matrix(9.9501,0.104624,-0.104624,9.9501,32.9292,8.34263)"><stop offset="0" style="stop-color:white;stop-opacity:1"/><stop offset="0.56" style="stop-color:rgb(239,239,239);stop-opacity:1"/><stop offset="1" style="stop-color:rgb(178,178,178);stop-opacity:1"/></linearGradient>
    </defs>
</svg>
