<svg width="100%" height="100%" viewBox="0 0 24 24" version="1.1" xmlns="http://www.w3.org/2000/svg" xmlns:xlink="http://www.w3.org/1999/xlink" xml:space="preserve" xmlns:serif="http://www.serif.com/" style="fill-rule:evenodd;clip-rule:evenodd;stroke-linejoin:round;stroke-miterlimit:2;"><g id="emblem" transform="matrix(0.771898,0,0,0.771898,-21.51,0.000221041)"><path d="M58.585,12.171C56.722,3.797 48.412,-1.489 40.038,0.373C31.664,2.236 26.377,10.547 28.24,18.921C30.103,27.295 38.413,32.581 46.787,30.719C55.161,28.856 60.448,20.545 58.585,12.171Z" style="fill:url(#_Linear1);"/><g><clipPath id="_clip2"><path d="M58.585,12.171C56.722,3.797 48.412,-1.489 40.038,0.373C31.664,2.236 26.377,10.547 28.24,18.921C30.103,27.295 38.413,32.581 46.787,30.719C55.161,28.856 60.448,20.545 58.585,12.171Z"/></clipPath><g clip-path="url(#_clip2)"><path d="M53.421,16.259C52.775,16.259 52.25,15.735 52.25,15.088C52.25,13.151 50.674,11.574 48.736,11.574C48.09,11.574 47.565,11.05 47.565,10.403C47.565,9.757 48.09,9.232 48.736,9.232C51.967,9.232 54.592,11.858 54.592,15.088C54.592,15.735 54.068,16.259 53.421,16.259Z" style="fill:url(#_Linear3);fill-rule:nonzero;"/><g><g id="right"><path d="M47.564,8.988C47.564,7.052 45.988,5.475 44.05,5.475C43.404,5.475 42.879,4.951 42.879,4.303C42.879,3.657 43.404,3.132 44.05,3.132C47.018,3.132 49.549,5.076 49.855,8.211C49.888,8.263 49.856,19.19 49.856,19.19C49.856,19.835 50.433,20.361 51.077,20.361C51.725,20.361 52.249,20.886 52.249,21.532C52.249,22.18 51.725,22.704 51.077,22.704C49.298,22.704 47.821,21.372 47.594,19.652C47.574,19.611 47.564,19.569 47.564,19.525L47.564,8.988Z" style="fill:url(#_Linear4);fill-rule:nonzero;"/></g><g id="left"><path d="M33.064,16.248C32.503,15.925 32.311,15.209 32.635,14.648C32.958,14.089 33.674,13.896 34.235,14.22C34.792,14.542 35.512,14.35 35.835,13.791C36.158,13.231 36.874,13.039 37.434,13.362C37.994,13.686 38.186,14.403 37.863,14.962C36.894,16.64 34.74,17.216 33.064,16.248Z" style="fill:url(#_Linear5);fill-rule:nonzero;"/><path d="M35.846,12.821C36.186,9.913 38.663,7.65 41.662,7.65C42.308,7.65 42.833,8.175 42.833,8.821C42.833,9.468 42.308,9.992 41.662,9.992C39.724,9.992 38.148,11.569 38.148,13.506L38.148,19.556C37.981,21.193 36.302,22.537 34.635,22.537C33.988,22.537 33.464,22.013 33.464,21.365C33.464,20.719 33.988,20.194 34.635,20.194C35.279,20.194 35.855,19.668 35.855,19.023C35.855,19.023 35.82,12.875 35.846,12.821Z" style="fill:url(#_Linear6);fill-rule:nonzero;"/></g><path d="M42.94,27.035C42.293,27.035 41.769,26.668 41.769,26.214L41.769,-14.845C41.769,-15.298 42.293,-15.666 42.94,-15.666C43.586,-15.666 44.111,-15.298 44.111,-14.845L44.111,26.214C44.111,26.668 43.586,27.035 42.94,27.035Z" style="fill:white;fill-rule:nonzero;"/></g></g></g></g><defs><linearGradient id="_Linear1" x1="0" y1="0" x2="1" y2="0" gradientUnits="userSpaceOnUse" gradientTransform="matrix(-16.6518,22.7584,-22.7584,-16.6518,47.6537,6.30617)"><stop offset="0" style="stop-color:rgb(29,161,255);stop-opacity:1"/><stop offset="1" style="stop-color:rgb(2,104,252);stop-opacity:1"/></linearGradient><linearGradient id="_Linear3" x1="0" y1="0" x2="1" y2="0" gradientUnits="userSpaceOnUse" gradientTransform="matrix(-8.67681,-1.31342,1.31342,-8.67681,57.1955,11.5717)"><stop offset="0" style="stop-color:white;stop-opacity:1"/><stop offset="0.58" style="stop-color:rgb(241,241,241);stop-opacity:1"/><stop offset="0.8" style="stop-color:rgb(210,210,210);stop-opacity:1"/><stop offset="1" style="stop-color:rgb(179,179,179);stop-opacity:1"/></linearGradient><linearGradient id="_Linear4" x1="0" y1="0" x2="1" y2="0" gradientUnits="userSpaceOnUse" gradientTransform="matrix(-8.64383,-2.77633,2.77633,-8.64383,51.5231,5.90863)"><stop offset="0" style="stop-color:white;stop-opacity:1"/><stop offset="0.52" style="stop-color:rgb(237,237,237);stop-opacity:1"/><stop offset="1" style="stop-color:rgb(178,178,178);stop-opacity:1"/></linearGradient><linearGradient id="_Linear5" x1="0" y1="0" x2="1" y2="0" gradientUnits="userSpaceOnUse" gradientTransform="matrix(3.8029,-0.930653,0.930653,3.8029,32.8683,16.1073)"><stop offset="0" style="stop-color:white;stop-opacity:1"/><stop offset="0.48" style="stop-color:rgb(235,235,235);stop-opacity:1"/><stop offset="1" style="stop-color:rgb(178,178,178);stop-opacity:1"/></linearGradient><linearGradient id="_Linear6" x1="0" y1="0" x2="1" y2="0" gradientUnits="userSpaceOnUse" gradientTransform="matrix(9.9501,0.104624,-0.104624,9.9501,32.9292,8.34263)"><stop offset="0" style="stop-color:white;stop-opacity:1"/><stop offset="0.56" style="stop-color:rgb(239,239,239);stop-opacity:1"/><stop offset="1" style="stop-color:rgb(178,178,178);stop-opacity:1"/></linearGradient></defs></svg>
